HIERARCHY
ROOT Hips
{
	OFFSET 0.00000 0.00000 0.00000
	CHANNELS 6 Xposition Yposition Zposition Zrotation Yrotation Xrotation 
	JOINT LHipJoint
	{
		OFFSET 0 0 0
		CHANNELS 3 Zrotation Yrotation Xrotation
		JOINT LeftHip
		{
			OFFSET 1.38280 -1.96574 0.54427
			CHANNELS 3 Zrotation Yrotation Xrotation
			JOINT LeftKnee
			{
				OFFSET 2.72096 -7.47578 0.00000
				CHANNELS 3 Zrotation Yrotation Xrotation
				JOINT LeftAnkle
				{
					OFFSET 2.73041 -7.50176 0.00000
					CHANNELS 3 Zrotation Yrotation Xrotation
					JOINT LeftToe
					{
						OFFSET 0.16150 -0.44371 2.18031
						CHANNELS 3 Zrotation Yrotation Xrotation
						End Site
						{
							OFFSET 0.00000 -0.00000 1.12127
						}
					}
				}
			}
		}
	}
	JOINT RHipJoint
	{
		OFFSET 0 0 0
		CHANNELS 3 Zrotation Yrotation Xrotation
		JOINT RightHip
		{
			OFFSET -1.57224 -1.96575 0.54427
			CHANNELS 3 Zrotation Yrotation Xrotation
			JOINT RightKnee
			{
				OFFSET -2.95935 -8.13076 0.00000
				CHANNELS 3 Zrotation Yrotation Xrotation
				JOINT RightAnkle
				{
					OFFSET -2.52345 -6.93311 0.00000
					CHANNELS 3 Zrotation Yrotation Xrotation
					JOINT RightToe
					{
						OFFSET -0.04475 -0.10171 1.86688
						CHANNELS 3 Zrotation Yrotation Xrotation
						End Site
						{
							OFFSET -0.00000 -0.00000 0.95157
						}
					}
				}
			}
		}
	}
	JOINT lowerback
	{
		OFFSET 0 0 0
		CHANNELS 3 Zrotation Yrotation Xrotation
		JOINT Chest
		{
			OFFSET 0.00669 2.07367 0.09104
			CHANNELS 3 Zrotation Yrotation Xrotation
			JOINT Chest2
			{
				OFFSET -0.00664 2.06198 -0.04732
				CHANNELS 3 Zrotation Yrotation Xrotation
				JOINT lowerneck
				{
					OFFSET 0 0 0
					CHANNELS 3 Zrotation Yrotation Xrotation
					JOINT Neck
					{
						OFFSET -0.00021 1.49948 0.16345
						CHANNELS 3 Zrotation Yrotation Xrotation
						JOINT Head
						{
							OFFSET 0.06080 1.50567 -0.26702
							CHANNELS 3 Zrotation Yrotation Xrotation
							End Site
							{
								OFFSET 0.01726 1.56470 -0.11854
							}
						}
					}
				}
				JOINT LeftCollar
				{
					OFFSET 0 0 0
					CHANNELS 3 Zrotation Yrotation Xrotation
					JOINT LeftShoulder
					{
						OFFSET 3.14993 0.82932 -0.22488
CHANNELS 3 Zrotation Xrotation Yrotation
						JOINT LeftElbow
						{
OFFSET 0 -5.682360 -0.000000
CHANNELS 3 Zrotation Xrotation Yrotation
							JOINT LeftWrist
							{
OFFSET 0 -3.171120 0.000000
CHANNELS 3 Zrotation Xrotation Yrotation
								JOINT lhand
								{
									OFFSET 0 0 0
CHANNELS 3 Zrotation Xrotation Yrotation
									JOINT LFingers
									{
OFFSET 0 -0.632690 0.000000
CHANNELS 3 Zrotation Xrotation Yrotation
										End Site
										{
OFFSET 0 -0.510090 0.000000
										}
									}
								}
								JOINT LThumb
								{
OFFSET 0 0.000000 0.000000
CHANNELS 3 Zrotation Xrotation Yrotation
									End Site
									{
OFFSET 0 -0.517880 0.517880
									}
								}
							}
						}
					}
				}
				JOINT RightCollar
				{
					OFFSET 0 0 0
					CHANNELS 3 Zrotation Yrotation Xrotation
					JOINT RightShoulder
					{
						OFFSET -3.10571 0.91279 -0.33334
CHANNELS 3 Zrotation Xrotation Yrotation
						JOINT RightElbow
						{
OFFSET 0 -5.871200 -0.000000
CHANNELS 3 Zrotation Xrotation Yrotation
							JOINT RightWrist
							{
OFFSET 0 -3.375890 0.000000
CHANNELS 3 Zrotation Xrotation Yrotation
								JOINT rhand
								{
									OFFSET 0 0 0
CHANNELS 3 Zrotation Xrotation Yrotation
									JOINT RFingers
									{
OFFSET 0 -0.603260 0.000000
CHANNELS 3 Zrotation Xrotation Yrotation
										End Site
										{
OFFSET 0 -0.486360 0.000000
										}
									}
								}
								JOINT RThumb
								{
OFFSET 0 0.000000 0.000000
CHANNELS 3 Zrotation Xrotation Yrotation
									End Site
									{
OFFSET 0 -0.493790 0.493790
									}
								}
							}
						}
					}
				}
			}
		}
	}
}
MOTION
Frames: 9
Frame Time: 0.008333333333333333
-8.446943 17.413682 11.574304 225.291497 73.882352 -151.476741 0.000000 0.000000 0.000000 -10.848014 0.177451 -10.702309 7.503751 15.741875 50.754890 0.824706 -13.467946 -17.529037 0.119886 -2.232086 -6.147577 0.000000 0.000000 0.000000 -22.802808 14.952102 -77.342364 0.000000 0.000000 0.000000 1.098217 -22.797812 -23.374546 -2.288791 -9.442692 27.190644 -2.146871 -3.069911 14.282112 0.334422 -2.999562 14.751000 1.831850 -1.211734 8.028681 -8.226818 -1.347528 -11.454850 9.778523 -1.999799 21.151812 4.527651 -0.484076 8.631314 0.000000 0.000000 0.000000 30.385034 -28.859797 -25.877649 80.513386 -59.657148 51.793854 16.103869 -13.267510 -29.963861 0.000000 0.000000 0.000000 -7.125000 0.000000 0.000000 -17.468917 60.090475 6.551005 0.000000 0.000000 0.000000 -15.387890 16.376841 6.172559 -21.091816 -31.935208 -6.098453 -30.080728 -8.564930 -30.936316 0.000000 0.000000 0.000000 7.125000 0.000000 0.000000 0.755643 -4.725287 0.815439
-7.976208 17.534662 11.316895 223.124225 80.098991 -151.526469 0.000000 0.000000 0.000000 -16.566278 2.103640 -8.456331 6.485637 14.882916 46.900747 1.292103 -10.952674 -20.596629 0.075732 -1.775344 -4.885154 0.000000 0.000000 0.000000 -8.980755 23.422642 -78.284846 -9.068323 -16.850832 56.325123 0.354040 -14.516758 5.425173 -2.712683 10.214789 -29.675048 -1.892861 -2.363373 6.834064 -0.509433 -2.382530 12.742478 0.520633 -1.010762 9.785066 -5.377207 -0.796501 -13.947531 6.021897 -0.949221 22.968803 2.910885 -0.109549 9.605812 0.000000 0.000000 0.000000 19.807997 -10.719113 -30.137338 81.270045 -59.710018 52.447014 14.398982 -13.567412 -29.388357 0.000000 0.000000 0.000000 -7.125000 0.000000 0.000000 -18.866511 59.150797 6.670499 0.000000 0.000000 0.000000 -5.884644 22.773331 -8.278845 -13.004249 -21.293431 -2.454869 -21.509760 13.653729 -35.148544 0.000000 0.000000 0.000000 7.125000 0.000000 0.000000 6.259867 -6.940654 7.010118
-7.656683 17.760433 11.151386 229.880098 83.509046 -136.838421 0.000000 0.000000 0.000000 -19.427058 -1.371279 -12.895813 5.669181 14.099852 43.639060 1.580848 -8.177589 -22.509518 0.042881 -1.335805 -3.673225 0.000000 0.000000 0.000000 3.851047 25.109090 -57.000358 -13.757492 -19.038812 71.462652 0.236282 -9.842505 1.543811 -1.434528 7.565057 -21.404598 -0.824074 -1.639734 -3.261925 0.304706 -1.953571 8.362614 0.559308 -0.942022 10.774755 -4.326840 -0.490666 -15.032359 4.006940 -0.244139 24.202596 2.143583 0.094795 10.210465 0.000000 0.000000 0.000000 11.017907 4.827042 -32.389761 82.250710 -59.771830 53.294010 12.811131 -13.889889 -28.748476 0.000000 0.000000 0.000000 -7.125000 0.000000 0.000000 -20.068766 58.196124 6.652874 0.000000 0.000000 0.000000 -1.056966 24.537183 -6.410083 -15.363501 -24.649887 -3.376163 -21.137321 7.069766 -35.172511 0.000000 0.000000 0.000000 7.125000 0.000000 0.000000 6.465650 -6.882418 7.237618
-7.535804 17.863483 11.100482 277.908431 85.376674 -82.055935 0.000000 0.000000 0.000000 -19.930271 -4.636937 -18.222366 5.435206 13.857697 42.670581 2.067004 -5.020815 -26.077778 0.096490 -2.003047 -5.514102 0.000000 0.000000 0.000000 13.408892 23.676854 -36.658534 -12.595937 -18.631316 67.865679 0.017621 -2.351210 -0.779788 -4.849275 13.211626 -40.166736 0.357563 -0.474539 -9.225075 1.182180 -0.766757 4.544762 0.930911 -0.380401 10.065604 -4.429349 -0.290661 -14.700488 3.220819 0.308039 25.446358 1.977460 0.259533 10.577902 0.000000 0.000000 0.000000 8.196876 12.616303 -34.026566 83.392408 -59.834389 54.280807 12.487730 -16.390823 -28.870640 0.000000 0.000000 0.000000 -7.125000 0.000000 0.000000 -20.487636 58.239667 6.821083 0.000000 0.000000 0.000000 -4.317872 20.872997 6.194725 -21.013962 -31.844037 -6.057627 -24.631757 -2.083980 -34.528367 0.000000 0.000000 0.000000 7.125000 0.000000 0.000000 4.456111 -7.041461 4.983094
-7.539673 17.952241 11.152204 309.111459 83.574558 -45.488377 0.000000 0.000000 0.000000 -18.812068 -6.248796 -23.546144 5.336591 13.753065 42.257275 2.221537 -2.780752 -27.486107 0.200927 -2.886242 -7.962193 0.000000 0.000000 0.000000 17.834335 20.628691 -25.533632 -9.612868 -17.186065 58.186053 -0.042457 4.841607 -4.693897 -6.115083 14.538905 -45.441833 1.514577 0.059296 -12.521127 1.496973 -0.296298 2.544795 0.692777 -0.100731 9.793677 -4.364746 -0.179322 -15.609266 2.860922 0.562041 25.705877 1.881417 0.329873 10.843582 0.000000 0.000000 0.000000 9.746525 11.403099 -36.622145 78.129900 -59.460833 49.738846 12.222663 -16.160520 -28.075600 0.000000 0.000000 0.000000 -7.125000 0.000000 0.000000 -20.212288 57.439904 6.330785 0.000000 0.000000 0.000000 -7.678052 14.890173 17.302770 -33.296367 -43.555346 -13.626309 -26.892193 -12.022089 -31.610204 0.000000 0.000000 0.000000 7.125000 0.000000 0.000000 2.676893 -4.595108 2.885772
-7.614078 18.070338 11.299181 319.812569 82.787756 -32.059202 0.000000 0.000000 0.000000 -18.430479 -7.267952 -25.539970 4.881848 13.249490 40.309816 2.223538 -1.226109 -27.885588 0.155280 -2.538717 -6.997091 0.000000 0.000000 0.000000 19.463544 17.466602 -20.114766 -6.718529 -15.090043 47.801371 -0.326800 4.186085 -10.172679 -6.681924 15.058006 -47.660756 1.355912 0.133649 -12.431270 1.173503 -0.131607 2.023883 0.463872 -0.023884 9.168514 -4.267282 -0.135643 -16.278658 2.904178 0.545154 24.633610 1.859434 0.321726 10.577655 0.000000 0.000000 0.000000 11.466265 8.210443 -37.670525 75.359457 -59.174365 47.356049 12.065612 -15.574620 -28.077148 0.000000 0.000000 0.000000 -7.125000 0.000000 0.000000 -20.373487 57.408102 6.368380 0.000000 0.000000 0.000000 -10.780734 9.793196 27.026889 -45.537431 -51.028676 -22.655929 -26.990426 -14.452004 -31.792153 0.000000 0.000000 0.000000 7.125000 0.000000 0.000000 2.654526 -4.809219 2.870716
-7.682653 18.134604 11.507250 325.093075 83.673054 -25.524954 0.000000 0.000000 0.000000 -18.672770 -7.482605 -26.610224 4.611745 12.932718 39.117135 2.057082 -0.738569 -26.937727 0.173114 -2.680293 -7.389830 0.000000 0.000000 0.000000 19.541021 12.793518 -19.718429 -5.230776 -13.639056 41.810455 -0.485109 3.522731 -12.423955 -7.539730 15.770015 -50.887142 0.775287 0.235846 -12.142778 0.800705 0.125260 2.329461 0.444623 0.078797 9.333644 -4.745289 -0.397675 -16.851218 3.169444 0.221575 23.676100 1.975681 0.153360 10.351119 0.000000 0.000000 0.000000 12.346205 4.208205 -38.735146 72.374510 -58.793010 44.797776 11.901433 -14.738693 -29.218360 0.000000 0.000000 0.000000 -7.125000 0.000000 0.000000 -21.339658 58.434504 7.222607 0.000000 0.000000 0.000000 -12.506080 6.130669 32.362754 -51.323671 -53.515552 -27.234854 -26.826165 -15.121210 -31.569333 0.000000 0.000000 0.000000 7.125000 0.000000 0.000000 2.706710 -4.535971 2.915461
-7.740176 18.134929 11.776888 335.784015 84.833957 -14.400555 0.000000 0.000000 0.000000 -19.360520 -7.948963 -26.924826 4.465890 12.755828 38.461331 1.946510 -0.210460 -26.353442 0.191770 -2.819114 -7.775594 0.000000 0.000000 0.000000 18.826326 13.578905 -18.794501 -4.801270 -13.156407 39.956913 -0.691641 3.967534 -14.868961 -7.633082 15.842585 -51.229942 -0.335337 0.222715 -11.797200 0.438121 0.310034 2.627440 0.719777 0.116098 9.453658 -4.894716 -0.634725 -17.387964 3.356542 -0.133146 22.544070 2.000574 -0.007016 10.060795 0.000000 0.000000 0.000000 11.917987 3.086529 -38.486416 70.874988 -58.571818 43.516688 11.897140 -14.751855 -28.170027 0.000000 0.000000 0.000000 -7.125000 0.000000 0.000000 -20.607726 57.459131 6.471507 0.000000 0.000000 0.000000 -12.227693 4.095236 35.276509 -50.569120 -53.222443 -26.629401 -27.191424 -15.542549 -32.158985 0.000000 0.000000 0.000000 7.125000 0.000000 0.000000 2.609253 -5.242181 2.839605
-7.774817 18.131338 12.036898 349.136497 86.446384 -0.880713 0.000000 0.000000 0.000000 -20.027370 -8.117982 -27.253404 4.444800 12.729905 38.365772 1.788374 0.047240 -25.334390 0.328999 -3.686476 -10.196329 0.000000 0.000000 0.000000 18.738999 14.196331 -17.610652 -4.464553 -12.754121 38.455091 -1.002057 1.771418 -18.407927 -7.375246 15.639845 -50.279584 -0.786353 0.135636 -11.772705 0.091948 0.293489 2.581632 0.600192 0.094289 9.389253 -5.458936 -1.074699 -17.380610 3.834826 -0.726470 21.549271 2.166665 -0.276281 9.737137 0.000000 0.000000 0.000000 11.082020 3.957163 -38.340537 69.952091 -58.425492 42.729756 10.994728 -15.942315 -26.070130 0.000000 0.000000 0.000000 -7.125000 0.000000 0.000000 -20.173298 55.312000 5.263547 0.000000 0.000000 0.000000 -9.840970 4.287053 35.630279 -48.784594 -52.493337 -25.206727 -27.253620 -15.355669 -32.525713 0.000000 0.000000 0.000000 7.125000 0.000000 0.000000 2.642896 -5.639423 2.892814
